<?xml version="1.0" encoding="UTF-8"?>
<svg version="1.1" xmlns="http://www.w3.org/2000/svg" width="512" height="512">
<path d="M0 0 C168.96 0 337.92 0 512 0 C512 168.96 512 337.92 512 512 C343.04 512 174.08 512 0 512 C0 343.04 0 174.08 0 0 Z M26 26 C26 177.8 26 329.6 26 486 C177.8 486 329.6 486 486 486 C486 334.2 486 182.4 486 26 C334.2 26 182.4 26 26 26 Z " fill="#FFFFFF" transform="translate(0,0)"/>
<path d="M0 0 C51.48 0 102.96 0 156 0 C156 8.58 156 17.16 156 26 C113.1 26 70.2 26 26 26 C26 40.52 26 55.04 26 70 C68.9 70 111.8 70 156 70 C156 78.58 156 87.16 156 96 C113.1 96 70.2 96 26 96 C26 110.19 26 124.38 26 139 C68.9 139 111.8 139 156 139 C156 147.58 156 156.16 156 165 C104.52 165 53.04 165 0 165 C0 110.55 0 56.1 0 0 Z " fill="#FFFFFF" transform="translate(278,78)"/>
<path d="M0 0 C51.48 0 102.96 0 156 0 C156 54.45 156 108.9 156 165 C104.52 165 53.04 165 0 165 C0 156.42 0 147.84 0 139 C8.58 139 17.16 139 26 139 C26 101.71 26 64.42 26 26 C17.42 26 8.84 26 0 26 C0 17.42 0 8.84 0 0 Z M52 26 C52 63.29 52 100.58 52 139 C77.74 139 103.48 139 130 139 C130 101.71 130 64.42 130 26 C104.26 26 78.52 26 52 26 Z " fill="#FFFFFF" transform="translate(278,269)"/>
<path d="M0 0 C51.48 0 102.96 0 156 0 C156 54.45 156 108.9 156 165 C147.42 165 138.84 165 130 165 C130 143.55 130 122.1 130 100 C95.68 100 61.36 100 26 100 C26 121.45 26 142.9 26 165 C17.42 165 8.84 165 0 165 C0 110.55 0 56.1 0 0 Z M26 26 C26 41.84 26 57.68 26 74 C60.32 74 94.64 74 130 74 C130 58.16 130 42.32 130 26 C95.68 26 61.36 26 26 26 Z " fill="#FFFFFF" transform="translate(78,78)"/>
<path d="M0 0 C51.48 0 102.96 0 156 0 C156 8.58 156 17.16 156 26 C113.1 26 70.2 26 26 26 C26 63.29 26 100.58 26 139 C68.9 139 111.8 139 156 139 C156 147.58 156 156.16 156 165 C104.52 165 53.04 165 0 165 C0 110.55 0 56.1 0 0 Z " fill="#FFFFFF" transform="translate(78,269)"/>
</svg>
